<svg id="Layer_1" data-name="Layer 1" xmlns="http://www.w3.org/2000/svg" viewBox="0 0 296.43 59.04"><defs><style>.cls-1{fill:#fff;}.cls-2{fill:#b1b3b6;}</style></defs><title>CSCEArtboard 1</title><rect class="cls-1" x="67.54" y="2.53" width="1.25" height="53.18"/><path class="cls-1" d="M87.91,8.17H86.74V2h-2.1V1H90V2h-2.1Z"/><path class="cls-1" d="M95.64,8.17h-4V1h4V2H92.77V4h2.69v1H92.77V7.18h2.87Z"/><path class="cls-1" d="M102.94,8.17H101.6L99.81,5.25,98,8.17H96.76l2.37-3.7L96.91,1h1.3l1.65,2.7L101.51,1h1.26l-2.23,3.45Z"/><path class="cls-1" d="M108.83,8.17l-.71-2h-2.73l-.7,2h-1.23L106.13,1h1.27l2.67,7.16Zm-1-3-.67-1.95c0-.13-.11-.33-.2-.61s-.15-.49-.18-.62c-.09.4-.22.84-.38,1.32l-.65,1.86Z"/><path class="cls-1" d="M115.63,6.24a1.79,1.79,0,0,1-.69,1.49,3,3,0,0,1-1.9.54,4.54,4.54,0,0,1-2-.37V6.79a4.57,4.57,0,0,0,1,.36,4.3,4.3,0,0,0,1,.14,1.59,1.59,0,0,0,1-.27.85.85,0,0,0,.33-.71.87.87,0,0,0-.3-.67A4.33,4.33,0,0,0,112.92,5a3.4,3.4,0,0,1-1.38-.91,1.94,1.94,0,0,1-.4-1.22,1.72,1.72,0,0,1,.64-1.4,2.58,2.58,0,0,1,1.7-.52,5,5,0,0,1,2,.45l-.37,1a4.57,4.57,0,0,0-1.7-.4,1.34,1.34,0,0,0-.86.25.83.83,0,0,0-.29.65.9.9,0,0,0,.12.48,1.22,1.22,0,0,0,.38.37,6.82,6.82,0,0,0,1,.47,4.89,4.89,0,0,1,1.15.61,1.63,1.63,0,0,1,.54.64A1.93,1.93,0,0,1,115.63,6.24Z"/><path class="cls-1" d="M125,8.17l-.71-2H121.6l-.7,2h-1.23L122.34,1h1.27l2.67,7.16Zm-1-3-.67-1.95c0-.13-.12-.33-.2-.61S123,2.14,123,2a11.66,11.66,0,0,1-.39,1.32l-.64,1.86Z"/><path class="cls-1" d="M127.25,6.28a2,2,0,0,1,.31-1.11,3.3,3.3,0,0,1,1.13-1,4,4,0,0,1-.63-.91,1.77,1.77,0,0,1-.17-.78,1.42,1.42,0,0,1,.53-1.17,2.21,2.21,0,0,1,1.42-.43,2,2,0,0,1,1.36.42,1.39,1.39,0,0,1,.49,1.13,1.69,1.69,0,0,1-.33,1,3.53,3.53,0,0,1-1.1.9L132,6a4.57,4.57,0,0,0,.66-1.54h1.18a5.37,5.37,0,0,1-1.09,2.26l1.47,1.42h-1.48l-.73-.7a4,4,0,0,1-1.06.6,3.81,3.81,0,0,1-1.25.2,2.68,2.68,0,0,1-1.76-.53A1.78,1.78,0,0,1,127.25,6.28Zm2.46,1a2.35,2.35,0,0,0,1.53-.53l-1.87-1.84a2.33,2.33,0,0,0-.72.63,1.14,1.14,0,0,0-.19.66,1,1,0,0,0,.34.77A1.27,1.27,0,0,0,129.71,7.29ZM129,2.57a1.18,1.18,0,0,0,.16.58,3.67,3.67,0,0,0,.46.59,2.66,2.66,0,0,0,.77-.59.93.93,0,0,0,.23-.61.61.61,0,0,0-.22-.5.78.78,0,0,0-.56-.19.89.89,0,0,0-.61.19A.69.69,0,0,0,129,2.57Z"/><path class="cls-1" d="M138.71,8.17l-2.07-6h0c.06.89.08,1.72.08,2.49V8.17h-1.06V1h1.65l2,5.67h0l2-5.67H143V8.17h-1.12V4.64q0-.52,0-1.38c0-.57,0-.92,0-1h0l-2.14,5.95Z"/><path class="cls-1" d="M154.05,1V5.65A2.83,2.83,0,0,1,153.71,7a2.3,2.3,0,0,1-1,.91,3.29,3.29,0,0,1-1.53.32,2.88,2.88,0,0,1-2.07-.7,2.54,2.54,0,0,1-.73-1.93V1h1.17V5.55A1.84,1.84,0,0,0,150,6.86a1.68,1.68,0,0,0,1.26.42q1.65,0,1.65-1.74V1Z"/><path class="cls-1" d="M162.32,8.17h-1.43l-3.51-5.68h0l0,.31c0,.61.07,1.16.07,1.66V8.17h-1.06V1h1.42l3.5,5.65h0c0-.07,0-.34,0-.81s0-.84,0-1.1V1h1.07Z"/><path class="cls-1" d="M164.7,8.17V1h1.17V8.17Z"/><path class="cls-1" d="M172.32,1h1.21L171,8.17H169.8L167.31,1h1.2L170,5.47c.08.22.16.49.25.82a6.23,6.23,0,0,1,.17.75c.05-.25.11-.54.2-.86s.16-.57.21-.73Z"/><path class="cls-1" d="M179,8.17h-4V1h4V2h-2.87V4h2.69v1h-2.69V7.18H179Z"/><path class="cls-1" d="M182.22,5.32V8.17h-1.16V1h2a3.36,3.36,0,0,1,2.05.51,1.88,1.88,0,0,1,.66,1.57A1.94,1.94,0,0,1,184.4,5l2,3.16h-1.32l-1.71-2.85Zm0-1H183a1.82,1.82,0,0,0,1.19-.31,1.1,1.1,0,0,0,.36-.9,1,1,0,0,0-.39-.86A2.14,2.14,0,0,0,183,2h-.78Z"/><path class="cls-1" d="M192.07,6.24a1.79,1.79,0,0,1-.69,1.49,3,3,0,0,1-1.9.54,4.59,4.59,0,0,1-2-.37V6.79a4.74,4.74,0,0,0,1,.36,4.38,4.38,0,0,0,1,.14,1.59,1.59,0,0,0,1-.27.85.85,0,0,0,.33-.71.87.87,0,0,0-.3-.67A4.48,4.48,0,0,0,189.36,5,3.26,3.26,0,0,1,188,4.07a1.89,1.89,0,0,1-.4-1.22,1.71,1.71,0,0,1,.63-1.4,2.61,2.61,0,0,1,1.71-.52,5,5,0,0,1,2,.45l-.37,1a4.61,4.61,0,0,0-1.7-.4,1.32,1.32,0,0,0-.86.25.8.8,0,0,0-.29.65.9.9,0,0,0,.11.48,1.27,1.27,0,0,0,.39.37,7.14,7.14,0,0,0,1,.47,5,5,0,0,1,1.16.61,1.69,1.69,0,0,1,.53.64A1.8,1.8,0,0,1,192.07,6.24Z"/><path class="cls-1" d="M194,8.17V1h1.16V8.17Z"/><path class="cls-1" d="M200,8.17H198.8V2h-2.1V1h5.36V2H200Z"/><path class="cls-1" d="M205.67,4.29,207.36,1h1.27l-2.37,4.37V8.17h-1.18V5.44L202.72,1H204Z"/><path class="cls-1" d="M96.78,23.58a6.6,6.6,0,0,1-1.76,5,7,7,0,0,1-5.08,1.72H86.3V17.14h4a6.44,6.44,0,0,1,4.76,1.7A6.41,6.41,0,0,1,96.78,23.58Zm-1.61.06a5.26,5.26,0,0,0-1.29-3.87,5.17,5.17,0,0,0-3.83-1.31H87.83V29h1.86a5.61,5.61,0,0,0,4.1-1.34A5.29,5.29,0,0,0,95.17,23.64Z"/><path class="cls-1" d="M103.31,30.45a4.5,4.5,0,0,1-3.44-1.33,5.13,5.13,0,0,1-1.26-3.69,5.73,5.73,0,0,1,1.17-3.78,3.9,3.9,0,0,1,3.15-1.4,3.73,3.73,0,0,1,2.93,1.22,4.7,4.7,0,0,1,1.07,3.21v.94h-6.78a3.91,3.91,0,0,0,.88,2.63,3,3,0,0,0,2.34.9,7.94,7.94,0,0,0,3.14-.66v1.32a7.18,7.18,0,0,1-1.49.49A8.35,8.35,0,0,1,103.31,30.45Zm-.4-8.95a2.45,2.45,0,0,0-1.89.77,3.56,3.56,0,0,0-.83,2.14h5.14a3.33,3.33,0,0,0-.62-2.16A2.22,2.22,0,0,0,102.91,21.5Z"/><path class="cls-1" d="M113.72,30.45A4.34,4.34,0,0,1,112,30.1,3.36,3.36,0,0,1,110.63,29h-.1a13.43,13.43,0,0,1,.1,1.63v4h-1.49V20.43h1.22l.2,1.35h.07A3.51,3.51,0,0,1,112,20.61a4.09,4.09,0,0,1,1.75-.36,3.66,3.66,0,0,1,3,1.34,5.93,5.93,0,0,1,1.06,3.75,5.86,5.86,0,0,1-1.08,3.77A3.64,3.64,0,0,1,113.72,30.45Zm-.21-8.93a2.65,2.65,0,0,0-2.18.83,4.36,4.36,0,0,0-.7,2.66v.33a4.91,4.91,0,0,0,.7,3,2.61,2.61,0,0,0,2.21.89,2.3,2.3,0,0,0,2-1,4.92,4.92,0,0,0,.73-2.85,4.74,4.74,0,0,0-.73-2.82A2.38,2.38,0,0,0,113.51,21.52Z"/><path class="cls-1" d="M126.13,30.27l-.29-1.4h-.07a4,4,0,0,1-1.47,1.25,4.47,4.47,0,0,1-1.83.33,3.27,3.27,0,0,1-2.29-.75,2.73,2.73,0,0,1-.83-2.15q0-3,4.76-3.12l1.67-.06v-.61a2.51,2.51,0,0,0-.49-1.71,2.07,2.07,0,0,0-1.6-.55,6.49,6.49,0,0,0-2.78.75l-.46-1.14a7.4,7.4,0,0,1,1.59-.62,6.92,6.92,0,0,1,1.74-.22,3.75,3.75,0,0,1,2.61.78,3.25,3.25,0,0,1,.85,2.51v6.71Zm-3.36-1.05a3,3,0,0,0,2.18-.76,2.83,2.83,0,0,0,.8-2.14v-.89l-1.49.07a5.39,5.39,0,0,0-2.57.55,1.66,1.66,0,0,0-.78,1.52,1.52,1.52,0,0,0,.49,1.23A2,2,0,0,0,122.77,29.22Z"/><path class="cls-1" d="M134.47,20.25a6,6,0,0,1,1.18.11l-.21,1.38a5.08,5.08,0,0,0-1.08-.13,2.61,2.61,0,0,0-2,1,3.5,3.5,0,0,0-.85,2.41v5.28H130V20.43h1.23l.17,1.82h.07a4.45,4.45,0,0,1,1.32-1.48A3,3,0,0,1,134.47,20.25Z"/><path class="cls-1" d="M140.34,29.22a4.77,4.77,0,0,0,.76-.06,3.84,3.84,0,0,0,.58-.12v1.14a2.57,2.57,0,0,1-.71.2,5.48,5.48,0,0,1-.85.07c-1.9,0-2.86-1-2.86-3V21.59h-1.41v-.72l1.41-.62.63-2.1h.86v2.28h2.86v1.16h-2.86v5.79a2,2,0,0,0,.43,1.37A1.48,1.48,0,0,0,140.34,29.22Z"/><path class="cls-1" d="M155.86,30.27v-6.4a2.62,2.62,0,0,0-.5-1.76,1.93,1.93,0,0,0-1.56-.59,2.5,2.5,0,0,0-2.06.8,3.81,3.81,0,0,0-.66,2.46v5.49h-1.49v-6.4a2.62,2.62,0,0,0-.51-1.76,1.93,1.93,0,0,0-1.57-.59,2.43,2.43,0,0,0-2,.84,4.56,4.56,0,0,0-.65,2.75v5.16h-1.49V20.43h1.21l.24,1.35h.07A3,3,0,0,1,146,20.65a3.79,3.79,0,0,1,1.72-.4,2.93,2.93,0,0,1,3,1.67h.07a3.21,3.21,0,0,1,1.28-1.22,3.92,3.92,0,0,1,1.9-.45,3.32,3.32,0,0,1,2.5.86,3.81,3.81,0,0,1,.83,2.74v6.42Z"/><path class="cls-1" d="M164.25,30.45a4.5,4.5,0,0,1-3.44-1.33,5.13,5.13,0,0,1-1.26-3.69,5.73,5.73,0,0,1,1.17-3.78,3.9,3.9,0,0,1,3.15-1.4,3.71,3.71,0,0,1,2.92,1.22,4.65,4.65,0,0,1,1.08,3.21v.94h-6.78a3.86,3.86,0,0,0,.88,2.63,3,3,0,0,0,2.34.9,8,8,0,0,0,3.14-.66v1.32a7.26,7.26,0,0,1-1.5.49A8.25,8.25,0,0,1,164.25,30.45Zm-.4-8.95a2.45,2.45,0,0,0-1.89.77,3.56,3.56,0,0,0-.83,2.14h5.14a3.27,3.27,0,0,0-.63-2.16A2.2,2.2,0,0,0,163.85,21.5Z"/><path class="cls-1" d="M176.82,30.27V23.91a2.6,2.6,0,0,0-.55-1.8,2.27,2.27,0,0,0-1.72-.59,2.84,2.84,0,0,0-2.26.83,4.23,4.23,0,0,0-.72,2.76v5.16h-1.49V20.43h1.21l.25,1.35h.07a3,3,0,0,1,1.28-1.13,4.14,4.14,0,0,1,1.84-.4,3.75,3.75,0,0,1,2.68.86,3.64,3.64,0,0,1,.9,2.74v6.42Z"/><path class="cls-1" d="M184.22,29.22a4.68,4.68,0,0,0,.76-.06,3.59,3.59,0,0,0,.58-.12v1.14a2.57,2.57,0,0,1-.71.2,5.39,5.39,0,0,1-.85.07c-1.9,0-2.85-1-2.85-3V21.59h-1.41v-.72l1.41-.62.62-2.1h.87v2.28h2.85v1.16h-2.85v5.79a2,2,0,0,0,.42,1.37A1.49,1.49,0,0,0,184.22,29.22Z"/><path class="cls-1" d="M200.14,25.34a5.41,5.41,0,0,1-1.21,3.76,4.28,4.28,0,0,1-3.35,1.35,4.36,4.36,0,0,1-2.34-.62,4,4,0,0,1-1.58-1.77,6.12,6.12,0,0,1-.56-2.72,5.45,5.45,0,0,1,1.2-3.75,4.27,4.27,0,0,1,3.34-1.34,4.14,4.14,0,0,1,3.28,1.38A5.39,5.39,0,0,1,200.14,25.34Zm-7.5,0a4.64,4.64,0,0,0,.76,2.88,3,3,0,0,0,4.44,0,4.67,4.67,0,0,0,.76-2.88,4.61,4.61,0,0,0-.76-2.85,2.68,2.68,0,0,0-2.24-1,2.61,2.61,0,0,0-2.21,1A4.59,4.59,0,0,0,192.64,25.34Z"/><path class="cls-1" d="M206.86,21.59h-2.51v8.68h-1.49V21.59H201.1v-.67l1.76-.54v-.55q0-3.63,3.17-3.63a7,7,0,0,1,1.84.31l-.39,1.2a4.85,4.85,0,0,0-1.47-.28,1.44,1.44,0,0,0-1.25.56,3.15,3.15,0,0,0-.41,1.8v.64h2.51Z"/><path class="cls-1" d="M218.62,18.32a4.3,4.3,0,0,0-3.42,1.44A5.85,5.85,0,0,0,214,23.71a6,6,0,0,0,1.2,4,4.31,4.31,0,0,0,3.45,1.41,11.75,11.75,0,0,0,3.13-.5v1.34a9.66,9.66,0,0,1-3.36.51,5.67,5.67,0,0,1-4.48-1.76,7.24,7.24,0,0,1-1.58-5,7.87,7.87,0,0,1,.76-3.56,5.53,5.53,0,0,1,2.19-2.35,6.66,6.66,0,0,1,3.38-.82,8.12,8.12,0,0,1,3.6.75L221.6,19A6.94,6.94,0,0,0,218.62,18.32Z"/><path class="cls-1" d="M232.54,25.34a5.42,5.42,0,0,1-1.22,3.76A4.25,4.25,0,0,1,228,30.45a4.38,4.38,0,0,1-2.34-.62,4.07,4.07,0,0,1-1.58-1.77,6.26,6.26,0,0,1-.56-2.72,5.4,5.4,0,0,1,1.21-3.75A4.26,4.26,0,0,1,228,20.25a4.16,4.16,0,0,1,3.28,1.38A5.39,5.39,0,0,1,232.54,25.34Zm-7.5,0a4.71,4.71,0,0,0,.75,2.88,3,3,0,0,0,4.44,0,4.6,4.6,0,0,0,.76-2.88,4.55,4.55,0,0,0-.76-2.85,3,3,0,0,0-4.45,0A4.65,4.65,0,0,0,225,25.34Z"/><path class="cls-1" d="M247.37,30.27v-6.4a2.62,2.62,0,0,0-.51-1.76,1.9,1.9,0,0,0-1.56-.59,2.52,2.52,0,0,0-2.06.8,3.81,3.81,0,0,0-.66,2.46v5.49h-1.49v-6.4a2.62,2.62,0,0,0-.51-1.76,1.93,1.93,0,0,0-1.57-.59,2.43,2.43,0,0,0-2,.84,4.56,4.56,0,0,0-.65,2.75v5.16h-1.49V20.43H236l.24,1.35h.08a2.89,2.89,0,0,1,1.19-1.13,3.73,3.73,0,0,1,1.72-.4,2.91,2.91,0,0,1,3,1.67h.07a3.21,3.21,0,0,1,1.28-1.22,4,4,0,0,1,1.9-.45,3.36,3.36,0,0,1,2.51.86,3.85,3.85,0,0,1,.83,2.74v6.42Z"/><path class="cls-1" d="M256.18,30.45a4.39,4.39,0,0,1-1.76-.35A3.33,3.33,0,0,1,253.09,29H253a13.52,13.52,0,0,1,.11,1.63v4H251.6V20.43h1.21l.2,1.35h.08a3.48,3.48,0,0,1,1.33-1.17,4.1,4.1,0,0,1,1.76-.36,3.65,3.65,0,0,1,3,1.34,5.87,5.87,0,0,1,1.06,3.75,5.86,5.86,0,0,1-1.08,3.77A3.62,3.62,0,0,1,256.18,30.45ZM256,21.52a2.66,2.66,0,0,0-2.18.83,4.3,4.3,0,0,0-.69,2.66v.33a4.91,4.91,0,0,0,.69,3,2.62,2.62,0,0,0,2.22.89,2.28,2.28,0,0,0,2-1,4.85,4.85,0,0,0,.73-2.85A4.67,4.67,0,0,0,258,22.5,2.38,2.38,0,0,0,256,21.52Z"/><path class="cls-1" d="M263.94,20.43v6.39a2.57,2.57,0,0,0,.54,1.79,2.23,2.23,0,0,0,1.72.59,2.81,2.81,0,0,0,2.26-.84,4.29,4.29,0,0,0,.71-2.76V20.43h1.49v9.84h-1.23L269.22,29h-.08a3,3,0,0,1-1.28,1.12,4.37,4.37,0,0,1-1.85.38,3.76,3.76,0,0,1-2.69-.85,3.62,3.62,0,0,1-.89-2.73V20.43Z"/><path class="cls-1" d="M276.67,29.22a4.68,4.68,0,0,0,.76-.06A4,4,0,0,0,278,29v1.14a2.55,2.55,0,0,1-.72.2,5.27,5.27,0,0,1-.84.07c-1.91,0-2.86-1-2.86-3V21.59h-1.41v-.72l1.41-.62.63-2.1h.86v2.28H278v1.16h-2.86v5.79a2,2,0,0,0,.42,1.37A1.49,1.49,0,0,0,276.67,29.22Z"/><path class="cls-1" d="M283.81,30.45a4.5,4.5,0,0,1-3.44-1.33,5.13,5.13,0,0,1-1.26-3.69,5.73,5.73,0,0,1,1.17-3.78,3.9,3.9,0,0,1,3.15-1.4,3.69,3.69,0,0,1,2.92,1.22,4.65,4.65,0,0,1,1.08,3.21v.94h-6.78a3.86,3.86,0,0,0,.88,2.63,3,3,0,0,0,2.34.9,8,8,0,0,0,3.14-.66v1.32a7.26,7.26,0,0,1-1.5.49A8.32,8.32,0,0,1,283.81,30.45Zm-.4-8.95a2.45,2.45,0,0,0-1.89.77,3.56,3.56,0,0,0-.83,2.14h5.14a3.27,3.27,0,0,0-.63-2.16A2.2,2.2,0,0,0,283.41,21.5Z"/><path class="cls-1" d="M294.13,20.25a6,6,0,0,1,1.18.11l-.21,1.38a5.08,5.08,0,0,0-1.08-.13,2.62,2.62,0,0,0-2,1,3.5,3.5,0,0,0-.85,2.41v5.28h-1.49V20.43h1.23l.17,1.82h.07a4.45,4.45,0,0,1,1.32-1.48A3,3,0,0,1,294.13,20.25Z"/><path class="cls-1" d="M93.71,50.19a3.25,3.25,0,0,1-1.25,2.71,5.51,5.51,0,0,1-3.42,1,8.41,8.41,0,0,1-3.59-.61V51.79a9.28,9.28,0,0,0,1.76.54,9.49,9.49,0,0,0,1.89.2A3.86,3.86,0,0,0,91.4,52a1.92,1.92,0,0,0,.77-1.61,2.09,2.09,0,0,0-.27-1.12,2.67,2.67,0,0,0-.92-.81,13.57,13.57,0,0,0-2-.83A6.28,6.28,0,0,1,86.41,46a3.41,3.41,0,0,1-.79-2.35,2.91,2.91,0,0,1,1.14-2.41,4.74,4.74,0,0,1,3-.9,8.87,8.87,0,0,1,3.6.72l-.47,1.33a8.11,8.11,0,0,0-3.17-.69,3.1,3.1,0,0,0-1.89.52,1.71,1.71,0,0,0-.68,1.45,2.21,2.21,0,0,0,.25,1.12,2.45,2.45,0,0,0,.85.8,10.13,10.13,0,0,0,1.82.8A7.29,7.29,0,0,1,92.94,48,3.13,3.13,0,0,1,93.71,50.19Z"/><path class="cls-1" d="M99.78,53.87a4.19,4.19,0,0,1-3.31-1.32,5.43,5.43,0,0,1-1.18-3.72A5.55,5.55,0,0,1,96.49,45a4.26,4.26,0,0,1,3.38-1.35,6.79,6.79,0,0,1,1.42.16,4.46,4.46,0,0,1,1.12.36L102,45.44a7.62,7.62,0,0,0-1.08-.33,5.26,5.26,0,0,0-1-.13q-3,0-3,3.83a4.51,4.51,0,0,0,.73,2.78,2.54,2.54,0,0,0,2.17,1,6.48,6.48,0,0,0,2.52-.53v1.32A5.33,5.33,0,0,1,99.78,53.87Z"/><path class="cls-1" d="M104.14,41.18a1,1,0,0,1,.25-.75.93.93,0,0,1,1.25,0,1,1,0,0,1,.26.75,1,1,0,0,1-.26.75.93.93,0,0,1-1.25,0A1.06,1.06,0,0,1,104.14,41.18Zm1.62,12.51h-1.49V43.84h1.49Z"/><path class="cls-1" d="M112.75,53.87a4.55,4.55,0,0,1-3.45-1.33A5.16,5.16,0,0,1,108,48.85a5.74,5.74,0,0,1,1.17-3.79,3.9,3.9,0,0,1,3.15-1.4,3.73,3.73,0,0,1,2.93,1.22,4.65,4.65,0,0,1,1.08,3.21V49h-6.79a4,4,0,0,0,.88,2.64,3,3,0,0,0,2.34.89,7.94,7.94,0,0,0,3.14-.66v1.33a7.61,7.61,0,0,1-1.49.49A8.32,8.32,0,0,1,112.75,53.87Zm-.41-9a2.45,2.45,0,0,0-1.89.77,3.56,3.56,0,0,0-.83,2.14h5.15a3.27,3.27,0,0,0-.63-2.16A2.22,2.22,0,0,0,112.34,44.91Z"/><path class="cls-1" d="M125.31,53.69V47.32a2.57,2.57,0,0,0-.55-1.8,2.23,2.23,0,0,0-1.71-.59,2.87,2.87,0,0,0-2.27.83,4.29,4.29,0,0,0-.71,2.76v5.17h-1.5V43.84h1.22l.24,1.35h.07a3.16,3.16,0,0,1,1.29-1.13,4.25,4.25,0,0,1,1.84-.4,3.74,3.74,0,0,1,2.67.86,3.64,3.64,0,0,1,.9,2.74v6.43Z"/><path class="cls-1" d="M133.47,53.87a4.19,4.19,0,0,1-3.31-1.32A5.43,5.43,0,0,1,129,48.83,5.6,5.6,0,0,1,130.17,45a4.3,4.3,0,0,1,3.39-1.35,6.79,6.79,0,0,1,1.42.16,4.46,4.46,0,0,1,1.12.36l-.46,1.26a7.62,7.62,0,0,0-1.08-.33,5.26,5.26,0,0,0-1-.13q-3,0-3,3.83a4.51,4.51,0,0,0,.73,2.78,2.54,2.54,0,0,0,2.17,1A6.48,6.48,0,0,0,136,52v1.32A5.36,5.36,0,0,1,133.47,53.87Z"/><path class="cls-1" d="M142.12,53.87a4.55,4.55,0,0,1-3.45-1.33,5.16,5.16,0,0,1-1.26-3.69,5.74,5.74,0,0,1,1.17-3.79,3.9,3.9,0,0,1,3.15-1.4,3.73,3.73,0,0,1,2.93,1.22,4.7,4.7,0,0,1,1.07,3.21V49H139a3.94,3.94,0,0,0,.88,2.64,3,3,0,0,0,2.34.89,7.94,7.94,0,0,0,3.14-.66v1.33a7.83,7.83,0,0,1-1.49.49A8.32,8.32,0,0,1,142.12,53.87Zm-.41-9a2.45,2.45,0,0,0-1.89.77,3.56,3.56,0,0,0-.83,2.14h5.15a3.27,3.27,0,0,0-.63-2.16A2.22,2.22,0,0,0,141.71,44.91Z"/><path class="cls-1" d="M151.82,50.28a3.49,3.49,0,0,1,.63-2.06,6.65,6.65,0,0,1,2.24-1.82,10.87,10.87,0,0,1-1-1.29,4.05,4.05,0,0,1-.43-.92,2.93,2.93,0,0,1-.17-1,2.67,2.67,0,0,1,.88-2.11,3.69,3.69,0,0,1,2.46-.75,3.31,3.31,0,0,1,2.29.75,2.69,2.69,0,0,1,.83,2.09A2.86,2.86,0,0,1,158.9,45a7,7,0,0,1-2,1.65l3.65,3.51a4.25,4.25,0,0,0,.81-1.31,11.56,11.56,0,0,0,.51-1.63h1.5a8.46,8.46,0,0,1-1.84,3.89l2.69,2.62h-2.06l-1.66-1.6a6.89,6.89,0,0,1-2.15,1.36,6.81,6.81,0,0,1-2.45.42,4.32,4.32,0,0,1-3-1A3.34,3.34,0,0,1,151.82,50.28Zm4.1,2.25a4.92,4.92,0,0,0,3.59-1.39l-3.92-3.8a7.67,7.67,0,0,0-1.41,1,2.45,2.45,0,0,0-.81,1.9,2.11,2.11,0,0,0,.69,1.66A2.73,2.73,0,0,0,155.92,52.53Zm-1.39-9.36a2.28,2.28,0,0,0,.32,1.18A7.23,7.23,0,0,0,156,45.7a5.93,5.93,0,0,0,1.62-1.24,2.07,2.07,0,0,0,.45-1.32,1.46,1.46,0,0,0-.46-1.12,1.74,1.74,0,0,0-1.24-.44A1.88,1.88,0,0,0,155,42,1.43,1.43,0,0,0,154.53,43.17Z"/><path class="cls-1" d="M177.47,53.69h-7.31V40.56h7.31v1.35h-5.79v4.23h5.44v1.35h-5.44v4.83h5.79Z"/><path class="cls-1" d="M186.56,53.69V47.32a2.62,2.62,0,0,0-.54-1.8,2.27,2.27,0,0,0-1.72-.59,2.84,2.84,0,0,0-2.26.83,4.23,4.23,0,0,0-.72,2.76v5.17h-1.49V43.84H181l.24,1.35h.08a3.07,3.07,0,0,1,1.28-1.13,4.25,4.25,0,0,1,1.84-.4,3.75,3.75,0,0,1,2.68.86,3.68,3.68,0,0,1,.89,2.74v6.43Z"/><path class="cls-1" d="M198.84,43.84v.95L197,45a3.47,3.47,0,0,1,.45.82,3.19,3.19,0,0,1,.19,1.15,3,3,0,0,1-1,2.31,4,4,0,0,1-2.72.86,5.33,5.33,0,0,1-.82-.07,1.44,1.44,0,0,0-.95,1.26.65.65,0,0,0,.33.6,2.41,2.41,0,0,0,1.14.19h1.74a3.9,3.9,0,0,1,2.46.68,2.34,2.34,0,0,1,.86,2,2.8,2.8,0,0,1-1.32,2.5,7,7,0,0,1-3.82.85,5.31,5.31,0,0,1-3-.71,2.47,2.47,0,0,1-.47-3.59,3,3,0,0,1,1.62-.89,1.49,1.49,0,0,1-.64-.53,1.38,1.38,0,0,1-.25-.83,1.58,1.58,0,0,1,.28-.94,3.33,3.33,0,0,1,.91-.79,2.64,2.64,0,0,1-1.24-1.06,3.55,3.55,0,0,1,.49-4.22,4,4,0,0,1,2.74-.88,5.05,5.05,0,0,1,1.4.18ZM191,55.34a1.34,1.34,0,0,0,.68,1.21,3.65,3.65,0,0,0,1.93.41,5.36,5.36,0,0,0,2.78-.56,1.71,1.71,0,0,0,.9-1.52,1.21,1.21,0,0,0-.5-1.11,3.75,3.75,0,0,0-1.85-.31h-1.79a2.3,2.3,0,0,0-1.58.49A1.71,1.71,0,0,0,191,55.34ZM191.8,47a2,2,0,0,0,.58,1.56,2.35,2.35,0,0,0,1.63.53A1.9,1.9,0,0,0,196.19,47,2,2,0,0,0,194,44.75a2.15,2.15,0,0,0-1.61.57A2.25,2.25,0,0,0,191.8,47Z"/><path class="cls-1" d="M200.4,41.18a1,1,0,0,1,.25-.75.93.93,0,0,1,1.25,0,1,1,0,0,1,.26.75,1,1,0,0,1-.26.75.93.93,0,0,1-1.25,0A1.06,1.06,0,0,1,200.4,41.18ZM202,53.69h-1.49V43.84H202Z"/><path class="cls-1" d="M211.59,53.69V47.32a2.62,2.62,0,0,0-.55-1.8,2.27,2.27,0,0,0-1.72-.59,2.84,2.84,0,0,0-2.26.83,4.23,4.23,0,0,0-.72,2.76v5.17h-1.49V43.84h1.21l.24,1.35h.08a3.07,3.07,0,0,1,1.28-1.13,4.28,4.28,0,0,1,1.84-.4,3.75,3.75,0,0,1,2.68.86,3.64,3.64,0,0,1,.9,2.74v6.43Z"/><path class="cls-1" d="M220,53.87a4.55,4.55,0,0,1-3.45-1.33,5.16,5.16,0,0,1-1.26-3.69,5.74,5.74,0,0,1,1.17-3.79,3.9,3.9,0,0,1,3.15-1.4,3.73,3.73,0,0,1,2.93,1.22,4.7,4.7,0,0,1,1.07,3.21V49H216.8a3.94,3.94,0,0,0,.88,2.64,3,3,0,0,0,2.34.89,7.94,7.94,0,0,0,3.14-.66v1.33a7.61,7.61,0,0,1-1.49.49A8.32,8.32,0,0,1,220,53.87Zm-.41-9a2.45,2.45,0,0,0-1.89.77,3.56,3.56,0,0,0-.83,2.14H222a3.27,3.27,0,0,0-.63-2.16A2.22,2.22,0,0,0,219.56,44.91Z"/><path class="cls-1" d="M230,53.87a4.54,4.54,0,0,1-3.44-1.33,5.16,5.16,0,0,1-1.26-3.69,5.74,5.74,0,0,1,1.17-3.79,3.9,3.9,0,0,1,3.15-1.4,3.69,3.69,0,0,1,2.92,1.22,4.65,4.65,0,0,1,1.08,3.21V49h-6.78a3.89,3.89,0,0,0,.88,2.64,3,3,0,0,0,2.34.89,8,8,0,0,0,3.14-.66v1.33a7.91,7.91,0,0,1-1.5.49A8.25,8.25,0,0,1,230,53.87Zm-.4-9a2.45,2.45,0,0,0-1.89.77,3.56,3.56,0,0,0-.83,2.14H232a3.27,3.27,0,0,0-.63-2.16A2.2,2.2,0,0,0,229.55,44.91Z"/><path class="cls-1" d="M240.27,43.66a6,6,0,0,1,1.18.11l-.21,1.38a5.08,5.08,0,0,0-1.08-.13,2.62,2.62,0,0,0-2,1,3.52,3.52,0,0,0-.85,2.42v5.28h-1.49V43.84H237l.17,1.83h.07a4.49,4.49,0,0,1,1.32-1.49A3,3,0,0,1,240.27,43.66Z"/><path class="cls-1" d="M242.83,41.18a1,1,0,0,1,.25-.75.93.93,0,0,1,1.25,0,1,1,0,0,1,.26.75,1,1,0,0,1-.26.75.93.93,0,0,1-1.25,0A1.06,1.06,0,0,1,242.83,41.18Zm1.62,12.51H243V43.84h1.49Z"/><path class="cls-1" d="M254,53.69V47.32a2.62,2.62,0,0,0-.54-1.8,2.27,2.27,0,0,0-1.72-.59,2.84,2.84,0,0,0-2.26.83,4.23,4.23,0,0,0-.72,2.76v5.17h-1.49V43.84h1.21l.24,1.35h.07a3.16,3.16,0,0,1,1.29-1.13,4.25,4.25,0,0,1,1.84-.4,3.75,3.75,0,0,1,2.68.86,3.64,3.64,0,0,1,.89,2.74v6.43Z"/><path class="cls-1" d="M266.29,43.84v.95l-1.82.21a3.15,3.15,0,0,1,.45.82,3.19,3.19,0,0,1,.19,1.15,2.92,2.92,0,0,1-1,2.31,4,4,0,0,1-2.72.86,5.33,5.33,0,0,1-.82-.07,1.44,1.44,0,0,0-.95,1.26.65.65,0,0,0,.33.6,2.41,2.41,0,0,0,1.14.19h1.74a3.9,3.9,0,0,1,2.46.68,2.33,2.33,0,0,1,.85,2,2.79,2.79,0,0,1-1.31,2.5,7,7,0,0,1-3.82.85,5.31,5.31,0,0,1-3-.71,2.47,2.47,0,0,1-.47-3.59,3,3,0,0,1,1.62-.89,1.55,1.55,0,0,1-.64-.53,1.38,1.38,0,0,1-.25-.83,1.58,1.58,0,0,1,.28-.94,3.33,3.33,0,0,1,.91-.79,2.64,2.64,0,0,1-1.24-1.06,3.55,3.55,0,0,1,.49-4.22,4,4,0,0,1,2.74-.88,5.05,5.05,0,0,1,1.4.18Zm-7.85,11.5a1.34,1.34,0,0,0,.68,1.21,3.65,3.65,0,0,0,1.93.41,5.36,5.36,0,0,0,2.78-.56,1.71,1.71,0,0,0,.9-1.52,1.21,1.21,0,0,0-.5-1.11,3.75,3.75,0,0,0-1.85-.31h-1.79A2.32,2.32,0,0,0,259,54,1.71,1.71,0,0,0,258.44,55.34Zm.81-8.34a2,2,0,0,0,.58,1.56,2.35,2.35,0,0,0,1.63.53A1.9,1.9,0,0,0,263.64,47a2,2,0,0,0-2.21-2.22,2.15,2.15,0,0,0-1.61.57A2.25,2.25,0,0,0,259.25,47Z"/><path class="cls-1" d="M38.26,49.38A1.65,1.65,0,1,1,39.91,51a1.65,1.65,0,0,1-1.65-1.64m2.9,0a1.25,1.25,0,1,0-2.49,0,1.25,1.25,0,1,0,2.49,0m-1.88-.94H40c.45,0,.69.15.69.54a.47.47,0,0,1-.49.51l.5.81h-.35l-.49-.8h-.21v.8h-.34Zm.34.79h.31c.2,0,.38,0,.38-.27s-.2-.26-.38-.26h-.31Z"/><polygon class="cls-1" points="53.97 21.6 48.67 21.6 48.37 21.6 48.23 21.87 44.39 29.87 40.54 21.87 40.4 21.6 40.1 21.6 34.98 21.6 34.49 21.6 34.49 22.08 34.49 24.81 34.49 25.3 34.98 25.3 35.86 25.3 35.86 36.74 34.91 36.74 34.42 36.74 34.42 37.23 34.42 39.96 34.42 40.45 34.91 40.45 40.66 40.45 41.14 40.45 41.14 39.96 41.14 37.23 41.14 36.74 40.66 36.74 39.66 36.74 39.66 28.62 43.95 37.47 44.39 38.37 44.83 37.47 49.17 28.6 49.17 36.74 48.22 36.74 47.73 36.74 47.73 37.23 47.73 39.96 47.73 40.45 48.22 40.45 53.97 40.45 54.46 40.45 54.46 39.96 54.46 37.23 54.46 36.74 53.97 36.74 52.98 36.74 52.98 25.3 53.97 25.3 54.46 25.3 54.46 24.81 54.46 22.08 54.46 21.6 53.97 21.6"/><path class="cls-1" d="M20.59,36.73H19.07l-5-11.5h1v-3.7h-8v3.7h1.1l-5,11.5H1.12v3.71H8.37V36.73H7.31l.83-1.91h6l.82,1.91H13.83v3.71h7.25V36.73Zm-8.07-5.61H9.74l1.39-3.22Z"/><polygon class="cls-1" points="47.89 7.22 7.56 7.22 7 7.22 7 7.78 7 18.55 7 19.11 7.56 19.11 14.52 19.11 15.08 19.11 15.08 18.55 15.08 14.55 23.68 14.55 23.68 42.94 19.68 42.94 19.12 42.94 19.12 43.5 19.12 50.47 19.12 51.02 19.68 51.02 35.76 51.02 36.32 51.02 36.32 50.47 36.32 43.5 36.32 42.94 35.76 42.94 31.76 42.94 31.76 14.55 40.31 14.55 40.31 18.5 40.31 19.06 40.88 19.06 47.89 19.06 48.44 19.06 48.44 18.5 48.44 7.78 48.44 7.22 47.89 7.22"/><polygon class="cls-2" points="32.96 46.26 34.66 44.5 34.66 49.31 32.96 47.69 32.96 46.26"/><polygon class="cls-2" points="30.12 44.63 28.41 46.31 28.41 11.21 30.12 12.91 30.12 44.63"/><polygon class="cls-2" points="10.42 10.59 8.66 8.88 45.93 8.88 43.73 10.59 10.42 10.59"/><polygon class="cls-2" points="46.84 17.5 45.13 15.88 45.13 11.54 46.84 9.79 46.84 17.5"/></svg>